NotoKufiArabic-Black.ufo
<glyph name="number-ar" format="2">
  <advance width="864"/>
  <unicode hex="0600"/>
  <note>
uni0600
</note>
  <outline>
    <contour>
      <point x="844" y="-271" type="line"/>
      <point x="844" y="-123" type="line"/>
      <point x="734" y="-123" type="line"/>
      <point x="734" y="-83"/>
      <point x="748" y="-41"/>
      <point x="776" y="2" type="curve"/>
      <point x="659" y="81" type="line"/>
      <point x="614" y="21"/>
      <point x="591" y="-47"/>
      <point x="591" y="-123" type="curve"/>
      <point x="20" y="-123" type="line"/>
      <point x="20" y="-213"/>
      <point x="74" y="-271"/>
      <point x="163" y="-271" type="curve" smooth="yes"/>
    </contour>
  </outline>
</glyph>
<glyph name="year-ar" format="2">
  <advance width="1549"/>
  <unicode hex="0601"/>
  <note>
uni0601
</note>
  <outline>
    <contour>
      <point x="1329" y="-240" type="curve"/>
      <point x="1390" y="-335" type="line"/>
      <point x="1500" y="-256"/>
      <point x="1529" y="-202"/>
      <point x="1529" y="-145" type="curve" smooth="yes"/>
      <point x="1529" y="-56"/>
      <point x="1473" y="5"/>
      <point x="1390" y="5" type="curve" smooth="yes"/>
      <point x="1349" y="5"/>
      <point x="1313" y="0"/>
      <point x="1274" y="-7" type="curve" smooth="yes"/>
      <point x="1221" y="-17"/>
      <point x="1164" y="-32"/>
      <point x="1083" y="-53" type="curve" smooth="yes"/>
      <point x="883" y="-106"/>
      <point x="776" y="-129"/>
      <point x="716" y="-129" type="curve" smooth="yes"/>
      <point x="673" y="-129"/>
      <point x="656" y="-106"/>
      <point x="656" y="-60" type="curve" smooth="yes"/>
      <point x="656" y="-12" type="line"/>
      <point x="526" y="-12" type="line"/>
      <point x="526" y="-60" type="line" smooth="yes"/>
      <point x="526" y="-111"/>
      <point x="516" y="-124"/>
      <point x="495" y="-124" type="curve" smooth="yes"/>
      <point x="473" y="-124"/>
      <point x="459" y="-99"/>
      <point x="431" y="-68" type="curve" smooth="yes"/>
      <point x="397" y="-30"/>
      <point x="364" y="-12"/>
      <point x="332" y="-12" type="curve" smooth="yes"/>
      <point x="293" y="-12"/>
      <point x="257" y="-31"/>
      <point x="228" y="-70" type="curve" smooth="yes"/>
      <point x="210" y="-94"/>
      <point x="193" y="-128"/>
      <point x="173" y="-128" type="curve" smooth="yes"/>
      <point x="158" y="-128"/>
      <point x="144" y="-115"/>
      <point x="144" y="-86" type="curve" smooth="yes"/>
      <point x="144" y="-67"/>
      <point x="153" y="-42"/>
      <point x="169" y="-12" type="curve"/>
      <point x="48" y="-12" type="line"/>
      <point x="29" y="-48"/>
      <point x="20" y="-86"/>
      <point x="20" y="-125" type="curve" smooth="yes"/>
      <point x="20" y="-223"/>
      <point x="79" y="-275"/>
      <point x="153" y="-275" type="curve" smooth="yes"/>
      <point x="190" y="-275"/>
      <point x="227" y="-256"/>
      <point x="264" y="-217" type="curve" smooth="yes"/>
      <point x="286" y="-194"/>
      <point x="301" y="-178"/>
      <point x="309" y="-170" type="curve" smooth="yes"/>
      <point x="318" y="-163"/>
      <point x="324" y="-159"/>
      <point x="328" y="-159" type="curve" smooth="yes"/>
      <point x="334" y="-159"/>
      <point x="339" y="-161"/>
      <point x="345" y="-166" type="curve" smooth="yes"/>
      <point x="351" y="-172"/>
      <point x="365" y="-188"/>
      <point x="389" y="-215" type="curve" smooth="yes"/>
      <point x="421" y="-252"/>
      <point x="454" y="-271"/>
      <point x="487" y="-271" type="curve" smooth="yes"/>
      <point x="532" y="-271"/>
      <point x="585" y="-233"/>
      <point x="596" y="-195" type="curve"/>
      <point x="602" y="-239"/>
      <point x="662" y="-273"/>
      <point x="714" y="-271" type="curve" smooth="yes"/>
      <point x="736" y="-270"/>
      <point x="776" y="-265"/>
      <point x="819" y="-257" type="curve" smooth="yes"/>
      <point x="872" y="-247"/>
      <point x="954" y="-229"/>
      <point x="1132" y="-188" type="curve" smooth="yes"/>
      <point x="1259" y="-160"/>
      <point x="1332" y="-146"/>
      <point x="1351" y="-146" type="curve" smooth="yes"/>
      <point x="1372" y="-146"/>
      <point x="1381" y="-154"/>
      <point x="1381" y="-173" type="curve" smooth="yes"/>
      <point x="1381" y="-198"/>
      <point x="1360" y="-222"/>
    </contour>
  </outline>
</glyph>
<glyph name="dammatan-ar" format="2">
  <unicode hex="064C"/>
  <note>
uni064C
</note>
  <anchor x="-8" y="748" name="_top"/>
  <anchor x="0" y="764" name="_top2"/>
  <anchor x="13" y="1013" name="top"/>
  <outline>
    <contour>
      <point x="32" y="780" type="curve" smooth="yes"/>
      <point x="94" y="780"/>
      <point x="152" y="810"/>
      <point x="181" y="855" type="curve" smooth="yes"/>
      <point x="196" y="878"/>
      <point x="204" y="903"/>
      <point x="204" y="929" type="curve" smooth="yes"/>
      <point x="204" y="978"/>
      <point x="169" y="1013"/>
      <point x="113" y="1013" type="curve" smooth="yes"/>
      <point x="57" y="1013"/>
      <point x="18" y="978"/>
      <point x="18" y="925" type="curve" smooth="yes"/>
      <point x="18" y="899"/>
      <point x="25" y="875"/>
      <point x="46" y="843" type="curve"/>
      <point x="40" y="843"/>
      <point x="35" y="843"/>
      <point x="31" y="843" type="curve" smooth="yes"/>
      <point x="-11" y="843"/>
      <point x="-47" y="869"/>
      <point x="-86" y="925" type="curve"/>
      <point x="-179" y="844" type="line"/>
      <point x="-141" y="798" type="line"/>
      <point x="-95" y="838" type="line"/>
      <point x="-55" y="795"/>
      <point x="-13" y="780"/>
    </contour>
    <contour>
      <point x="105" y="866" type="curve"/>
      <point x="91" y="886"/>
      <point x="84" y="904"/>
      <point x="84" y="920" type="curve" smooth="yes"/>
      <point x="84" y="940"/>
      <point x="97" y="950"/>
      <point x="111" y="950" type="curve" smooth="yes"/>
      <point x="128" y="950"/>
      <point x="138" y="940"/>
      <point x="138" y="922" type="curve" smooth="yes"/>
      <point x="138" y="911"/>
      <point x="134" y="884"/>
    </contour>
  </outline>
</glyph>
<glyph name="kasratan-ar" format="2">
  <unicode hex="064D"/>
  <note>
uni064D
</note>
  <anchor x="0" y="-112" name="_bottom"/>
  <anchor x="0" y="-122" name="_bottom2"/>
  <anchor x="0" y="-411" name="bottom"/>
  <outline>
    <contour>
      <point x="-117" y="-349" type="line"/>
      <point x="-117" y="-420" type="line"/>
      <point x="117" y="-332" type="line"/>
      <point x="117" y="-262" type="line"/>
    </contour>
    <contour>
      <point x="-117" y="-209" type="line"/>
      <point x="-117" y="-281" type="line"/>
      <point x="117" y="-193" type="line"/>
      <point x="117" y="-122" type="line"/>
    </contour>
  </outline>
</glyph>
<glyph name="madda-ar" format="2">
  <unicode hex="0653"/>
  <note>
uni0653
</note>
  <anchor x="0" y="762" name="_top"/>
  <anchor x="0" y="762" name="_top2"/>
  <anchor x="23" y="911" name="top"/>
  <outline>
    <contour>
      <point x="-165" y="763" type="curve"/>
      <point x="-110" y="763" type="line"/>
      <point x="-100" y="809"/>
      <point x="-84" y="827"/>
      <point x="-54" y="827" type="curve" smooth="yes"/>
      <point x="-7" y="827"/>
      <point x="45" y="764"/>
      <point x="100" y="764" type="curve" smooth="yes"/>
      <point x="161" y="764"/>
      <point x="204" y="820"/>
      <point x="210" y="911" type="curve"/>
      <point x="155" y="911" type="line"/>
      <point x="144" y="865"/>
      <point x="131" y="847"/>
      <point x="100" y="847" type="curve" smooth="yes"/>
      <point x="57" y="847"/>
      <point x="1" y="910"/>
      <point x="-54" y="910" type="curve" smooth="yes"/>
      <point x="-110" y="910"/>
      <point x="-156" y="861"/>
    </contour>
  </outline>
</glyph>
<glyph name="hamzaabove-ar" format="2">
  <unicode hex="0654"/>
  <note>
uni0654
</note>
  <anchor x="0" y="759" name="_top"/>
  <anchor x="0" y="746" name="_top2"/>
  <anchor x="14" y="1009" name="top"/>
  <outline>
    <contour>
      <point x="-99" y="828" type="line"/>
      <point x="-99" y="764" type="line"/>
      <point x="-52" y="771"/>
      <point x="77" y="788"/>
      <point x="124" y="790" type="curve"/>
      <point x="124" y="864" type="line"/>
      <point x="101" y="862"/>
      <point x="88" y="861"/>
      <point x="42" y="854" type="curve"/>
      <point x="30" y="852" type="line"/>
      <point x="10" y="859"/>
      <point x="-4" y="874"/>
      <point x="-4" y="894" type="curve" smooth="yes"/>
      <point x="-4" y="920"/>
      <point x="12" y="940"/>
      <point x="41" y="940" type="curve" smooth="yes"/>
      <point x="60" y="940"/>
      <point x="79" y="936"/>
      <point x="98" y="927" type="curve"/>
      <point x="121" y="986" type="line"/>
      <point x="96" y="1001"/>
      <point x="66" y="1009"/>
      <point x="28" y="1009" type="curve" smooth="yes"/>
      <point x="-42" y="1009"/>
      <point x="-87" y="971"/>
      <point x="-87" y="910" type="curve" smooth="yes"/>
      <point x="-87" y="877"/>
      <point x="-66" y="851"/>
      <point x="-40" y="839" type="curve"/>
    </contour>
  </outline>
</glyph>
<glyph name="fathaHorizont-ar" format="2">
  <unicode hex="0659"/>
  <note>
uni0659
</note>
  <anchor x="0" y="625" name="_top"/>
  <anchor x="0" y="625" name="_top2"/>
  <anchor x="23" y="772" name="top"/>
  <outline>
    <contour>
      <point x="186" y="772" type="line"/>
      <point x="-72" y="772" type="line"/>
      <point x="-141" y="627" type="line"/>
      <point x="113" y="627" type="line"/>
    </contour>
  </outline>
</glyph>
<glyph name="fathatwodots-ar" format="2">
  <unicode hex="065E"/>
  <note>
uni065E
</note>
  <anchor x="1" y="864" name="_bottom"/>
  <anchor x="0" y="430" name="_top"/>
  <anchor x="0" y="430" name="_top2"/>
  <anchor x="1" y="431" name="bottom"/>
  <outline>
    <contour>
      <point x="126" y="757" type="line"/>
      <point x="-124" y="664" type="line"/>
      <point x="-159" y="519" type="line"/>
      <point x="86" y="612" type="line"/>
    </contour>
    <contour>
      <point x="-68" y="726" type="curve" smooth="yes"/>
      <point x="-38" y="726"/>
      <point x="-14" y="744"/>
      <point x="-14" y="784" type="curve" smooth="yes"/>
      <point x="-14" y="827"/>
      <point x="-38" y="844"/>
      <point x="-68" y="844" type="curve" smooth="yes"/>
      <point x="-100" y="844"/>
      <point x="-123" y="827"/>
      <point x="-123" y="784" type="curve" smooth="yes"/>
      <point x="-123" y="744"/>
      <point x="-100" y="726"/>
    </contour>
    <contour>
      <point x="46" y="431" type="curve" smooth="yes"/>
      <point x="74" y="431"/>
      <point x="100" y="448"/>
      <point x="100" y="489" type="curve" smooth="yes"/>
      <point x="100" y="530"/>
      <point x="74" y="549"/>
      <point x="46" y="549" type="curve" smooth="yes"/>
      <point x="14" y="549"/>
      <point x="-10" y="530"/>
      <point x="-10" y="489" type="curve" smooth="yes"/>
      <point x="-10" y="448"/>
      <point x="14" y="431"/>
    </contour>
  </outline>
</glyph>
<glyph name="wavyhamza_below" format="2">
  <unicode hex="065F"/>
  <note>
wavyhamza_below
</note>
  <outline>
    <contour>
      <point x="99" y="-240" type="curve"/>
      <point x="99" y="-176" type="line"/>
      <point x="73" y="-181"/>
      <point x="18" y="-191"/>
      <point x="1" y="-192" type="curve"/>
      <point x="-15" y="-186"/>
      <point x="-29" y="-168"/>
      <point x="-29" y="-149" type="curve" smooth="yes"/>
      <point x="-29" y="-125"/>
      <point x="-13" y="-103"/>
      <point x="16" y="-103" type="curve" smooth="yes"/>
      <point x="36" y="-103"/>
      <point x="55" y="-107"/>
      <point x="73" y="-116" type="curve"/>
      <point x="96" y="-61" type="line"/>
      <point x="71" y="-48"/>
      <point x="38" y="-38"/>
      <point x="3" y="-38" type="curve" smooth="yes"/>
      <point x="-67" y="-38"/>
      <point x="-112" y="-77"/>
      <point x="-112" y="-133" type="curve" smooth="yes"/>
      <point x="-112" y="-167"/>
      <point x="-92" y="-190"/>
      <point x="-60" y="-204" type="curve"/>
      <point x="-63" y="-206"/>
      <point x="-72" y="-205"/>
      <point x="-90" y="-195" type="curve" smooth="yes"/>
      <point x="-99" y="-190"/>
      <point x="-109" y="-186"/>
      <point x="-121" y="-186" type="curve" smooth="yes"/>
      <point x="-135" y="-186"/>
      <point x="-145" y="-191"/>
      <point x="-159" y="-202" type="curve" smooth="yes"/>
      <point x="-171" y="-213"/>
      <point x="-184" y="-227"/>
      <point x="-198" y="-243" type="curve"/>
      <point x="-168" y="-275" type="line"/>
      <point x="-151" y="-260"/>
      <point x="-135" y="-252"/>
      <point x="-123" y="-252" type="curve" smooth="yes"/>
      <point x="-112" y="-252"/>
      <point x="-108" y="-253"/>
      <point x="-99" y="-255" type="curve" smooth="yes"/>
      <point x="-88" y="-257"/>
      <point x="-71" y="-262"/>
      <point x="-48" y="-262" type="curve" smooth="yes"/>
      <point x="-6" y="-262"/>
      <point x="27" y="-257"/>
    </contour>
  </outline>
</glyph>
<glyph name="six-ar" format="2">
  <advance width="536"/>
  <unicode hex="0666"/>
  <note>
uni0666
</note>
  <outline>
    <contour>
      <point x="245" y="516" type="line"/>
      <point x="245" y="0" type="line"/>
      <point x="436" y="0" type="line"/>
      <point x="436" y="674" type="line"/>
      <point x="0" y="674" type="line"/>
      <point x="0" y="516" type="line"/>
    </contour>
  </outline>
</glyph>
<glyph name="percent-ar" format="2">
  <advance width="604.66667"/>
  <unicode hex="066A"/>
  <note>
uni066A
</note>
  <outline>
    <contour>
      <point x="96" y="625" type="line"/>
      <point x="96" y="485" type="line"/>
      <point x="236" y="485" type="line"/>
      <point x="236" y="625" type="line"/>
    </contour>
    <contour>
      <point x="411" y="674" type="line"/>
      <point x="50" y="0" type="line"/>
      <point x="194" y="0" type="line"/>
      <point x="555" y="674" type="line"/>
    </contour>
    <contour>
      <point x="374" y="203" type="line"/>
      <point x="374" y="63" type="line"/>
      <point x="514" y="63" type="line"/>
      <point x="514" y="203" type="line"/>
    </contour>
  </outline>
</glyph>
<glyph name="sadLamAlefMaksuraabove-ar" format="2">
  <unicode hex="06D6"/>
  <note>
uni06D6
</note>
  <anchor x="65" y="473" name="_top"/>
  <anchor x="65" y="473" name="_top2"/>
  <anchor x="40" y="874" name="top"/>
  <outline>
    <contour>
      <point x="-146" y="579" type="curve" smooth="yes"/>
      <point x="343" y="579" type="line"/>
      <point x="343" y="655" type="line" smooth="yes"/>
      <point x="343" y="728"/>
      <point x="309" y="763"/>
      <point x="239" y="763" type="curve" smooth="yes"/>
      <point x="188" y="763"/>
      <point x="152" y="737"/>
      <point x="132" y="683" type="curve"/>
      <point x="132" y="742" type="line"/>
      <point x="55" y="742" type="line"/>
      <point x="55" y="639" type="line"/>
      <point x="17" y="639" type="line"/>
      <point x="17" y="874" type="line"/>
      <point x="-59" y="874" type="line"/>
      <point x="-59" y="639" type="line"/>
      <point x="-152" y="639" type="line" smooth="yes"/>
      <point x="-211" y="639"/>
      <point x="-265" y="600"/>
      <point x="-265" y="554" type="curve" smooth="yes"/>
      <point x="-265" y="515"/>
      <point x="-234" y="483"/>
      <point x="-188" y="483" type="curve" smooth="yes"/>
      <point x="110" y="483" type="line"/>
      <point x="110" y="543" type="line"/>
      <point x="-163" y="543" type="line" smooth="yes"/>
      <point x="-181" y="543"/>
      <point x="-191" y="547"/>
      <point x="-191" y="557" type="curve" smooth="yes"/>
      <point x="-191" y="567"/>
      <point x="-175" y="579"/>
    </contour>
    <contour>
      <point x="267" y="639" type="line"/>
      <point x="132" y="639" type="line"/>
      <point x="132" y="631" type="line"/>
      <point x="150" y="674"/>
      <point x="182" y="705"/>
      <point x="219" y="705" type="curve" smooth="yes"/>
      <point x="251" y="705"/>
      <point x="267" y="687"/>
      <point x="267" y="657" type="curve" smooth="yes"/>
    </contour>
  </outline>
</glyph>
<glyph name="qafLamAlefMaksuraabove-ar" format="2">
  <unicode hex="06D7"/>
  <note>
uni06D7
</note>
  <anchor x="20" y="473" name="_top"/>
  <anchor x="20" y="473" name="_top2"/>
  <anchor x="-20" y="876" name="top"/>
  <outline>
    <contour>
      <point x="57" y="639" type="curve"/>
      <point x="-3" y="639" type="line"/>
      <point x="-3" y="874" type="line"/>
      <point x="-79" y="874" type="line"/>
      <point x="-79" y="639" type="line"/>
      <point x="-172" y="639" type="line" smooth="yes"/>
      <point x="-231" y="639"/>
      <point x="-285" y="600"/>
      <point x="-285" y="554" type="curve" smooth="yes"/>
      <point x="-285" y="515"/>
      <point x="-254" y="483"/>
      <point x="-208" y="483" type="curve" smooth="yes"/>
      <point x="90" y="483" type="line"/>
      <point x="90" y="543" type="line"/>
      <point x="-183" y="543" type="line" smooth="yes"/>
      <point x="-201" y="543"/>
      <point x="-211" y="547"/>
      <point x="-211" y="557" type="curve" smooth="yes"/>
      <point x="-211" y="567"/>
      <point x="-195" y="579"/>
      <point x="-166" y="579" type="curve" smooth="yes"/>
      <point x="244" y="579" type="line"/>
      <point x="244" y="780" type="line"/>
      <point x="161" y="780" type="line" smooth="yes"/>
      <point x="82" y="780"/>
      <point x="39" y="744"/>
      <point x="39" y="686" type="curve" smooth="yes"/>
      <point x="39" y="669"/>
      <point x="44" y="656"/>
    </contour>
    <contour>
      <point x="167" y="639" type="line"/>
      <point x="174" y="639" type="line" smooth="yes"/>
      <point x="138" y="639"/>
      <point x="117" y="655"/>
      <point x="117" y="681" type="curve" smooth="yes"/>
      <point x="117" y="706"/>
      <point x="133" y="721"/>
      <point x="162" y="721" type="curve" smooth="yes"/>
      <point x="167" y="721" type="line"/>
    </contour>
    <contour>
      <point x="118" y="813" type="curve" smooth="yes"/>
      <point x="132" y="813"/>
      <point x="146" y="824"/>
      <point x="146" y="845" type="curve" smooth="yes"/>
      <point x="146" y="867"/>
      <point x="132" y="876"/>
      <point x="118" y="876" type="curve" smooth="yes"/>
      <point x="103" y="876"/>
      <point x="88" y="868"/>
      <point x="88" y="845" type="curve" smooth="yes"/>
      <point x="88" y="823"/>
      <point x="103" y="813"/>
    </contour>
    <contour>
      <point x="205" y="813" type="curve" smooth="yes"/>
      <point x="220" y="813"/>
      <point x="234" y="823"/>
      <point x="234" y="845" type="curve" smooth="yes"/>
      <point x="234" y="866"/>
      <point x="224" y="876"/>
      <point x="205" y="876" type="curve" smooth="yes"/>
      <point x="185" y="876"/>
      <point x="175" y="866"/>
      <point x="175" y="845" type="curve" smooth="yes"/>
      <point x="175" y="823"/>
      <point x="191" y="813"/>
    </contour>
  </outline>
</glyph>
<glyph name="meemabove-ar" format="2">
  <unicode hex="06D8"/>
  <note>
uni06D8
</note>
  <anchor x="0" y="479" name="_top"/>
  <anchor x="0" y="479" name="_top2"/>
  <anchor x="5" y="688" name="top"/>
  <outline>
    <contour>
      <point x="-117" y="485" type="curve" smooth="yes"/>
      <point x="9" y="485" type="line" smooth="yes"/>
      <point x="77" y="485"/>
      <point x="130" y="527"/>
      <point x="130" y="590" type="curve" smooth="yes"/>
      <point x="130" y="648"/>
      <point x="86" y="688"/>
      <point x="25" y="688" type="curve" smooth="yes"/>
      <point x="1" y="688"/>
      <point x="-27" y="682"/>
      <point x="-59" y="669" type="curve"/>
      <point x="-73" y="649"/>
      <point x="-83" y="610"/>
      <point x="-83" y="592" type="curve" smooth="yes"/>
      <point x="-83" y="574"/>
      <point x="-80" y="558"/>
      <point x="-75" y="544" type="curve"/>
      <point x="-117" y="544" type="line" smooth="yes"/>
      <point x="-118" y="544"/>
      <point x="-119" y="543"/>
      <point x="-119" y="542" type="curve" smooth="yes"/>
      <point x="-119" y="487" type="line" smooth="yes"/>
      <point x="-119" y="486"/>
      <point x="-118" y="485"/>
    </contour>
    <contour>
      <point x="-15" y="572" type="curve" smooth="yes"/>
      <point x="-15" y="588"/>
      <point x="-13" y="604"/>
      <point x="-8" y="621" type="curve"/>
      <point x="2" y="626"/>
      <point x="12" y="628"/>
      <point x="22" y="628" type="curve" smooth="yes"/>
      <point x="41" y="628"/>
      <point x="54" y="619"/>
      <point x="54" y="595" type="curve" smooth="yes"/>
      <point x="54" y="564"/>
      <point x="34" y="544"/>
      <point x="-3" y="544" type="curve" smooth="yes"/>
      <point x="-8" y="544" type="line"/>
      <point x="-13" y="554"/>
      <point x="-15" y="563"/>
    </contour>
  </outline>
</glyph>
<glyph name="lamAlefabove-ar" format="2">
  <unicode hex="06D9"/>
  <note>
uni06D9
</note>
  <anchor x="15" y="479" name="_top"/>
  <anchor x="15" y="479" name="_top2"/>
  <anchor x="18" y="789" name="top"/>
  <outline>
    <contour>
      <point x="-103" y="544" type="line"/>
      <point x="-103" y="485" type="line"/>
      <point x="46" y="485" type="line" smooth="yes"/>
      <point x="106" y="485"/>
      <point x="139" y="524"/>
      <point x="139" y="586" type="curve" smooth="yes"/>
      <point x="139" y="789" type="line"/>
      <point x="64" y="789" type="line"/>
      <point x="64" y="590" type="line" smooth="yes"/>
      <point x="64" y="564"/>
      <point x="59" y="544"/>
      <point x="33" y="544" type="curve" smooth="yes"/>
      <point x="30" y="544" type="line"/>
      <point x="-15" y="735" type="line"/>
      <point x="-95" y="735" type="line"/>
      <point x="-42" y="544" type="line"/>
    </contour>
  </outline>
</glyph>
<glyph name="jeemabove-ar" format="2">
  <unicode hex="06DA"/>
  <note>
uni06DA
</note>
  <anchor x="20" y="456" name="_top"/>
  <anchor x="20" y="456" name="_top2"/>
  <anchor x="26" y="824" name="top"/>
  <outline>
    <contour>
      <point x="109" y="616" type="curve"/>
      <point x="145" y="663" type="line"/>
      <point x="119" y="683"/>
      <point x="113" y="693"/>
      <point x="102" y="750" type="curve" smooth="yes"/>
      <point x="93" y="800"/>
      <point x="62" y="824"/>
      <point x="8" y="824" type="curve" smooth="yes"/>
      <point x="-33" y="824"/>
      <point x="-63" y="817"/>
      <point x="-92" y="801" type="curve"/>
      <point x="-65" y="747" type="line"/>
      <point x="-45" y="759"/>
      <point x="-27" y="765"/>
      <point x="-13" y="765" type="curve" smooth="yes"/>
      <point x="11" y="765"/>
      <point x="28" y="753"/>
      <point x="37" y="728" type="curve" smooth="yes"/>
      <point x="48" y="699" type="line"/>
      <point x="-56" y="670"/>
      <point x="-94" y="631"/>
      <point x="-94" y="566" type="curve" smooth="yes"/>
      <point x="-94" y="514"/>
      <point x="-50" y="462"/>
      <point x="14" y="462" type="curve" smooth="yes"/>
      <point x="36" y="462"/>
      <point x="59" y="469"/>
      <point x="84" y="475" type="curve"/>
      <point x="74" y="529" type="line"/>
      <point x="60" y="526"/>
      <point x="41" y="523"/>
      <point x="25" y="525" type="curve" smooth="yes"/>
      <point x="-1" y="527"/>
      <point x="-22" y="549"/>
      <point x="-22" y="578" type="curve" smooth="yes"/>
      <point x="-22" y="622"/>
      <point x="8" y="629"/>
      <point x="75" y="648" type="curve"/>
      <point x="87" y="633"/>
      <point x="98" y="623"/>
    </contour>
    <contour>
      <point x="39" y="550" type="curve" smooth="yes"/>
      <point x="56" y="550"/>
      <point x="69" y="561"/>
      <point x="69" y="583" type="curve" smooth="yes"/>
      <point x="69" y="604"/>
      <point x="56" y="615"/>
      <point x="39" y="615" type="curve" smooth="yes"/>
      <point x="27" y="615"/>
      <point x="11" y="605"/>
      <point x="11" y="583" type="curve" smooth="yes"/>
      <point x="11" y="560"/>
      <point x="27" y="550"/>
    </contour>
  </outline>
</glyph>
<glyph name="seenabove-ar" format="2">
  <unicode hex="06DC"/>
  <note>
uni06DC
</note>
  <anchor x="39" y="488" name="_top"/>
  <anchor x="39" y="488" name="_top2"/>
  <outline>
    <contour>
      <point x="49" y="571" type="curve" smooth="yes"/>
      <point x="150" y="571" type="line"/>
      <point x="150" y="772" type="line"/>
      <point x="73" y="772" type="line"/>
      <point x="73" y="630" type="line"/>
      <point x="47" y="630" type="line" smooth="yes"/>
      <point x="29" y="630"/>
      <point x="22" y="633"/>
      <point x="7" y="648" type="curve"/>
      <point x="9" y="655"/>
      <point x="10" y="662"/>
      <point x="10" y="671" type="curve"/>
      <point x="10" y="741" type="line"/>
      <point x="-67" y="741" type="line"/>
      <point x="-67" y="677" type="line" smooth="yes"/>
      <point x="-67" y="646"/>
      <point x="-73" y="630"/>
      <point x="-104" y="630" type="curve" smooth="yes"/>
      <point x="-131" y="630" type="line"/>
      <point x="-131" y="741" type="line"/>
      <point x="-208" y="741" type="line"/>
      <point x="-208" y="598" type="line" smooth="yes"/>
      <point x="-208" y="556"/>
      <point x="-228" y="534"/>
      <point x="-264" y="534" type="curve" smooth="yes"/>
      <point x="-271" y="534" type="line" smooth="yes"/>
      <point x="-300" y="534"/>
      <point x="-325" y="557"/>
      <point x="-325" y="598" type="curve" smooth="yes"/>
      <point x="-325" y="622"/>
      <point x="-320" y="645"/>
      <point x="-312" y="679" type="curve"/>
      <point x="-376" y="679" type="line"/>
      <point x="-393" y="649"/>
      <point x="-401" y="620"/>
      <point x="-401" y="593" type="curve" smooth="yes"/>
      <point x="-401" y="524"/>
      <point x="-354" y="475"/>
      <point x="-272" y="475" type="curve" smooth="yes"/>
      <point x="-262" y="475" type="line" smooth="yes"/>
      <point x="-184" y="475"/>
      <point x="-141" y="507"/>
      <point x="-133" y="571" type="curve"/>
      <point x="-84" y="571" type="line" smooth="yes"/>
      <point x="-52" y="571"/>
      <point x="-28" y="581"/>
      <point x="-11" y="602" type="curve"/>
      <point x="6" y="581"/>
      <point x="22" y="571"/>
    </contour>
  </outline>
</glyph>
<glyph name="sukunoval-ar" format="2">
  <unicode hex="06E0"/>
  <note>
uni06E0
</note>
  <anchor x="0" y="505" name="_top"/>
  <anchor x="0" y="505" name="_top2"/>
  <anchor x="-2" y="675" name="top"/>
  <outline>
    <contour>
      <point x="80" y="514" type="line"/>
      <point x="80" y="675" type="line"/>
      <point x="-81" y="675" type="line"/>
      <point x="-81" y="514" type="line"/>
    </contour>
  </outline>
</glyph>
<glyph name="meemStopabove-ar" format="2">
  <unicode hex="06E2"/>
  <note>
uni06E2
</note>
  <anchor x="0" y="488" name="_top"/>
  <anchor x="0" y="488" name="_top2"/>
  <anchor x="15" y="816" name="top"/>
  <outline>
    <contour>
      <point x="-114" y="610" type="curve" smooth="yes"/>
      <point x="-114" y="485" type="line"/>
      <point x="-36" y="485" type="line"/>
      <point x="-36" y="582" type="line" smooth="yes"/>
      <point x="-36" y="609"/>
      <point x="-25" y="613"/>
      <point x="-2" y="613" type="curve" smooth="yes"/>
      <point x="23" y="613" type="line" smooth="yes"/>
      <point x="94" y="613"/>
      <point x="144" y="658"/>
      <point x="144" y="718" type="curve" smooth="yes"/>
      <point x="144" y="777"/>
      <point x="102" y="816"/>
      <point x="40" y="816" type="curve" smooth="yes"/>
      <point x="16" y="816"/>
      <point x="-12" y="810"/>
      <point x="-45" y="797" type="curve"/>
      <point x="-58" y="779"/>
      <point x="-68" y="742"/>
      <point x="-68" y="720" type="curve" smooth="yes"/>
      <point x="-68" y="701"/>
      <point x="-66" y="685"/>
      <point x="-61" y="672" type="curve"/>
      <point x="-97" y="666"/>
      <point x="-114" y="647"/>
    </contour>
    <contour>
      <point x="-1" y="700" type="curve" smooth="yes"/>
      <point x="-1" y="715"/>
      <point x="2" y="731"/>
      <point x="6" y="749" type="curve"/>
      <point x="18" y="754"/>
      <point x="28" y="756"/>
      <point x="36" y="756" type="curve" smooth="yes"/>
      <point x="56" y="756"/>
      <point x="68" y="744"/>
      <point x="68" y="720" type="curve" smooth="yes"/>
      <point x="68" y="686"/>
      <point x="40" y="672"/>
      <point x="12" y="672" type="curve" smooth="yes"/>
      <point x="6" y="672" type="line"/>
      <point x="1" y="683"/>
      <point x="-1" y="692"/>
    </contour>
  </outline>
</glyph>
<glyph name="seenbelow-ar" format="2">
  <unicode hex="06E3"/>
  <note>
uni06E3
</note>
  <anchor x="29" y="52" name="_bottom"/>
  <anchor x="29" y="52" name="_bottom2"/>
  <anchor x="0" y="-231" name="bottom"/>
  <outline>
    <contour>
      <point x="79" y="-144" type="curve" smooth="yes"/>
      <point x="180" y="-144" type="line"/>
      <point x="180" y="57" type="line"/>
      <point x="103" y="57" type="line"/>
      <point x="103" y="-85" type="line"/>
      <point x="77" y="-85" type="line" smooth="yes"/>
      <point x="62" y="-85"/>
      <point x="52" y="-82"/>
      <point x="37" y="-65" type="curve"/>
      <point x="39" y="-59"/>
      <point x="40" y="-52"/>
      <point x="40" y="-46" type="curve"/>
      <point x="40" y="26" type="line"/>
      <point x="-37" y="26" type="line"/>
      <point x="-37" y="-38" type="line" smooth="yes"/>
      <point x="-37" y="-70"/>
      <point x="-43" y="-85"/>
      <point x="-74" y="-85" type="curve" smooth="yes"/>
      <point x="-101" y="-85" type="line"/>
      <point x="-101" y="26" type="line"/>
      <point x="-178" y="26" type="line"/>
      <point x="-178" y="-117" type="line" smooth="yes"/>
      <point x="-178" y="-159"/>
      <point x="-198" y="-181"/>
      <point x="-234" y="-181" type="curve" smooth="yes"/>
      <point x="-241" y="-181" type="line" smooth="yes"/>
      <point x="-270" y="-181"/>
      <point x="-295" y="-158"/>
      <point x="-295" y="-113" type="curve" smooth="yes"/>
      <point x="-295" y="-86"/>
      <point x="-288" y="-59"/>
      <point x="-282" y="-36" type="curve"/>
      <point x="-346" y="-36" type="line"/>
      <point x="-363" y="-64"/>
      <point x="-371" y="-93"/>
      <point x="-371" y="-122" type="curve" smooth="yes"/>
      <point x="-371" y="-191"/>
      <point x="-322" y="-240"/>
      <point x="-242" y="-240" type="curve" smooth="yes"/>
      <point x="-232" y="-240" type="line" smooth="yes"/>
      <point x="-154" y="-240"/>
      <point x="-111" y="-208"/>
      <point x="-103" y="-144" type="curve"/>
      <point x="-54" y="-144" type="line" smooth="yes"/>
      <point x="-22" y="-144"/>
      <point x="2" y="-134"/>
      <point x="19" y="-113" type="curve"/>
      <point x="42" y="-137"/>
      <point x="65" y="-144"/>
    </contour>
  </outline>
</glyph>
<glyph name="maddalong-ar" format="2">
  <unicode hex="06E4"/>
  <note>
uni06E4
</note>
  <anchor x="0" y="534" name="_top"/>
  <anchor x="0" y="534" name="_top2"/>
  <anchor x="3" y="617" name="top"/>
  <outline>
    <contour>
      <point x="-74" y="558" type="curve"/>
      <point x="-51" y="558" type="line"/>
      <point x="-47" y="576"/>
      <point x="-41" y="583"/>
      <point x="-30" y="583" type="curve" smooth="yes"/>
      <point x="-24" y="583"/>
      <point x="-14" y="578"/>
      <point x="0" y="570" type="curve" smooth="yes"/>
      <point x="13" y="562"/>
      <point x="24" y="557"/>
      <point x="31" y="557" type="curve" smooth="yes"/>
      <point x="57" y="557"/>
      <point x="72" y="580"/>
      <point x="77" y="617" type="curve"/>
      <point x="54" y="617" type="line"/>
      <point x="50" y="599"/>
      <point x="44" y="592"/>
      <point x="31" y="592" type="curve" smooth="yes"/>
      <point x="26" y="592"/>
      <point x="17" y="596"/>
      <point x="5" y="604" type="curve" smooth="yes"/>
      <point x="-9" y="613"/>
      <point x="-21" y="617"/>
      <point x="-30" y="617" type="curve" smooth="yes"/>
      <point x="-56" y="617"/>
      <point x="-69" y="591"/>
    </contour>
  </outline>
</glyph>
<glyph name="wawSmall-ar" format="2">
  <advance width="248"/>
  <unicode hex="06E5"/>
  <note>
uni06E5
</note>
  <outline>
    <contour>
      <point x="107" y="482" type="curve" smooth="yes"/>
      <point x="180" y="482"/>
      <point x="228" y="521"/>
      <point x="228" y="585" type="curve" smooth="yes"/>
      <point x="228" y="782" type="line"/>
      <point x="162" y="782" type="line" smooth="yes"/>
      <point x="75" y="782"/>
      <point x="23" y="739"/>
      <point x="23" y="676" type="curve" smooth="yes"/>
      <point x="23" y="612"/>
      <point x="59" y="581"/>
      <point x="112" y="581" type="curve" smooth="yes"/>
      <point x="151" y="581" type="line"/>
      <point x="151" y="585" type="line" smooth="yes"/>
      <point x="151" y="555"/>
      <point x="137" y="541"/>
      <point x="103" y="541" type="curve" smooth="yes"/>
      <point x="79" y="541"/>
      <point x="63" y="550"/>
      <point x="44" y="558" type="curve"/>
      <point x="20" y="504" type="line"/>
      <point x="43" y="491"/>
      <point x="76" y="482"/>
    </contour>
    <contour>
      <point x="151" y="640" type="line"/>
      <point x="131" y="640" type="line" smooth="yes"/>
      <point x="112" y="640"/>
      <point x="101" y="654"/>
      <point x="101" y="678" type="curve" smooth="yes"/>
      <point x="101" y="705"/>
      <point x="115" y="722"/>
      <point x="141" y="722" type="curve" smooth="yes"/>
      <point x="151" y="722" type="line"/>
    </contour>
  </outline>
</glyph>
<glyph name="meembelow-ar" format="2">
  <unicode hex="06ED"/>
  <note>
uni06ED
</note>
  <anchor x="0" y="-49" name="_bottom"/>
  <anchor x="0" y="-49" name="_bottom2"/>
  <anchor x="0" y="-381" name="bottom"/>
  <outline>
    <contour>
      <point x="-148" y="-256" type="curve" smooth="yes"/>
      <point x="-148" y="-381" type="line"/>
      <point x="-70" y="-381" type="line"/>
      <point x="-70" y="-284" type="line" smooth="yes"/>
      <point x="-70" y="-257"/>
      <point x="-58" y="-253"/>
      <point x="-36" y="-253" type="curve" smooth="yes"/>
      <point x="-10" y="-253" type="line" smooth="yes"/>
      <point x="60" y="-253"/>
      <point x="111" y="-206"/>
      <point x="111" y="-148" type="curve" smooth="yes"/>
      <point x="111" y="-89"/>
      <point x="66" y="-50"/>
      <point x="-1" y="-50" type="curve" smooth="yes"/>
      <point x="-23" y="-50"/>
      <point x="-50" y="-55"/>
      <point x="-82" y="-69" type="curve"/>
      <point x="-95" y="-84"/>
      <point x="-105" y="-120"/>
      <point x="-105" y="-144" type="curve" smooth="yes"/>
      <point x="-105" y="-165"/>
      <point x="-101" y="-182"/>
      <point x="-94" y="-195" type="curve"/>
      <point x="-132" y="-199"/>
      <point x="-148" y="-222"/>
    </contour>
    <contour>
      <point x="-37" y="-154" type="curve" smooth="yes"/>
      <point x="-37" y="-144"/>
      <point x="-36" y="-131"/>
      <point x="-31" y="-117" type="curve"/>
      <point x="-24" y="-113"/>
      <point x="-15" y="-110"/>
      <point x="-1" y="-110" type="curve" smooth="yes"/>
      <point x="19" y="-110"/>
      <point x="35" y="-122"/>
      <point x="35" y="-148" type="curve" smooth="yes"/>
      <point x="35" y="-179"/>
      <point x="11" y="-195"/>
      <point x="-22" y="-195" type="curve" smooth="yes"/>
      <point x="-27" y="-195" type="line"/>
      <point x="-34" y="-180"/>
      <point x="-37" y="-167"/>
    </contour>
  </outline>
</glyph>
<glyph name="circumflex.arabic" format="2">
  <note>
circumflex.arabic
</note>
  <outline>
    <contour>
      <point x="-165" y="628" type="line"/>
      <point x="-55" y="628" type="line"/>
      <point x="0" y="757" type="line"/>
      <point x="53" y="628" type="line"/>
      <point x="164" y="628" type="line"/>
      <point x="63" y="827" type="line"/>
      <point x="-65" y="827" type="line"/>
    </contour>
  </outline>
</glyph>
<glyph name="rehStroke-ar.fina" format="2">
  <advance width="557"/>
  <note>
uni075B.fina
</note>
  <anchor x="216" y="-431" name="bottom"/>
  <anchor x="323" y="579" name="top"/>
  <outline>
    <contour>
      <point x="428" y="148" type="line"/>
      <point x="428" y="502" type="line"/>
      <point x="237" y="502" type="line"/>
      <point x="236" y="3" type="line" smooth="yes"/>
      <point x="236" y="-7"/>
      <point x="235" y="-16"/>
      <point x="234" y="-24" type="curve"/>
      <point x="94" y="-24" type="line"/>
      <point x="94" y="-148" type="line"/>
      <point x="194" y="-148" type="line"/>
      <point x="171" y="-188"/>
      <point x="141" y="-225"/>
      <point x="103" y="-257" type="curve"/>
      <point x="216" y="-387" type="line"/>
      <point x="313" y="-305"/>
      <point x="368" y="-229"/>
      <point x="400" y="-148" type="curve"/>
      <point x="493" y="-148" type="line"/>
      <point x="493" y="-24" type="line"/>
      <point x="428" y="-24" type="line"/>
      <point x="428" y="-14"/>
      <point x="427" y="-6"/>
      <point x="428" y="3" type="curve" smooth="yes"/>
      <point x="428" y="0" type="line"/>
      <point x="562" y="0" type="line" smooth="yes"/>
      <point x="566" y="0"/>
      <point x="567" y="2"/>
      <point x="567" y="5" type="curve" smooth="yes"/>
      <point x="567" y="144" type="line" smooth="yes"/>
      <point x="567" y="147"/>
      <point x="566" y="148"/>
      <point x="562" y="148" type="curve" smooth="yes"/>
    </contour>
  </outline>
</glyph>
<glyph name="seven-persian.urdu" format="2">
  <advance width="569"/>
  <note>
uni06F7.urdu
</note>
  <outline>
    <contour>
      <point x="230" y="674" type="line"/>
      <point x="20" y="111" type="line"/>
      <point x="20" y="0" type="line"/>
      <point x="524" y="0" type="line"/>
      <point x="524" y="158" type="line"/>
      <point x="229" y="158" type="line"/>
      <point x="429" y="674" type="line"/>
    </contour>
  </outline>
</glyph>
<glyph name="smallv.arabic" format="2">
  <note>
smallv.arabic
</note>
  <outline>
    <contour>
      <point x="175" y="828" type="line"/>
      <point x="65" y="828" type="line"/>
      <point x="0" y="699" type="line"/>
      <point x="-63" y="828" type="line"/>
      <point x="-174" y="828" type="line"/>
      <point x="-63" y="629" type="line"/>
      <point x="65" y="629" type="line"/>
    </contour>
  </outline>
</glyph>
<glyph name="wasla" format="2">
  <note>
wasla
</note>
  <anchor x="0" y="762" name="_top"/>
  <anchor x="0" y="762" name="_top2"/>
  <outline>
    <contour>
      <point x="-137" y="830" type="line"/>
      <point x="-137" y="770" type="line"/>
      <point x="114" y="770" type="line"/>
      <point x="114" y="833" type="line" smooth="yes"/>
      <point x="114" y="907"/>
      <point x="76" y="944"/>
      <point x="24" y="944" type="curve" smooth="yes"/>
      <point x="-30" y="944"/>
      <point x="-68" y="907"/>
      <point x="-91" y="830" type="curve"/>
    </contour>
    <contour>
      <point x="61" y="830" type="curve"/>
      <point x="-36" y="830" type="line"/>
      <point x="-28" y="861"/>
      <point x="-9" y="880"/>
      <point x="19" y="880" type="curve" smooth="yes"/>
      <point x="41" y="880"/>
      <point x="61" y="866"/>
    </contour>
  </outline>
</glyph>
<glyph name="yehHamzaabove-ar.medi" format="2">
  <advance width="396"/>
  <note>
uni0626.medi
</note>
  <anchor x="198" y="-78" name="bottom"/>
  <anchor x="191" y="851" name="top"/>
  <outline>
    <contour>
      <point x="-5" y="0" type="curve" smooth="yes"/>
      <point x="401" y="0" type="line" smooth="yes"/>
      <point x="404" y="0"/>
      <point x="406" y="2"/>
      <point x="406" y="5" type="curve" smooth="yes"/>
      <point x="406" y="144" type="line" smooth="yes"/>
      <point x="406" y="147"/>
      <point x="404" y="148"/>
      <point x="401" y="148" type="curve" smooth="yes"/>
      <point x="284" y="148" type="line"/>
      <point x="284" y="502" type="line"/>
      <point x="95" y="502" type="line"/>
      <point x="95" y="148" type="line"/>
      <point x="-5" y="148" type="line" smooth="yes"/>
      <point x="-8" y="148"/>
      <point x="-10" y="147"/>
      <point x="-10" y="144" type="curve" smooth="yes"/>
      <point x="-10" y="5" type="line" smooth="yes"/>
      <point x="-10" y="2"/>
      <point x="-8" y="0"/>
    </contour>
    <component base="hamzaabove-ar" xOffset="167" yOffset="-200"/>
  </outline>
</glyph>
